<?xml version="1.0" encoding="UTF-8"?>
<svg fill="#ED1944" width="100pt" height="100pt" version="1.1" viewBox="0 0 100 100" xmlns="http://www.w3.org/2000/svg">
 <g>
  <path d="m79.883 10.156h-59.766c-5.3359 0.003906-10.449 2.125-14.219 5.8984-3.7734 3.7695-5.8945 8.8828-5.8984 14.219v39.461c0.0078125 5.3359 2.1289 10.445 5.8984 14.215 3.7734 3.7695 8.8867 5.8906 14.219 5.8945h59.766c5.3359-0.003906 10.449-2.125 14.219-5.8984 3.7734-3.7695 5.8945-8.8828 5.8984-14.219v-39.465c-0.007812-5.332-2.1289-10.441-5.8984-14.211-3.7734-3.7695-8.8867-5.8906-14.219-5.8945zm11.211 59.586c-0.007812 6.1875-5.0234 11.203-11.211 11.211h-59.766c-6.1914-0.007813-11.207-5.0234-11.211-11.215v-39.477 0.003906c0.003906-6.1914 5.0195-11.207 11.211-11.215h59.766c6.1914 0.007813 11.207 5.0234 11.211 11.215z"/>
  <path d="m35.309 69.531 33.832-19.531-33.832-19.531z"/>
 </g>
</svg>
